<svg width="99" height="84" viewBox="0 0 99 84" fill="none" xmlns="http://www.w3.org/2000/svg">
<path d="M0 33.0368C0 28.2053 3.95752 24.2886 8.83937 24.2886H53.0362V59.2814H8.83937C3.95752 59.2814 0 55.3647 0 50.5332V33.0368Z" fill="#214FDA"/>
<path d="M53.036 7.2778V25.2569H22.3611C40.2683 9.70832 53.036 -11.1878 53.036 7.2778Z" fill="#214FDA"/>
<path d="M53.036 76.3433V58.3642H22.3611C40.2683 73.9128 53.036 94.8089 53.036 76.3433Z" fill="#214FDA"/>
<path d="M65.578 21.7293C67.224 20.0494 69.901 19.957 71.6598 21.4815L71.8277 21.6344L72.1346 21.9353C75.3244 25.1178 78.9197 30.5986 80.0043 37.4107C81.1599 44.6695 79.3951 53.0692 72.0493 61.2206C70.4246 63.0234 67.6308 63.1815 65.8091 61.5737C63.9875 59.9658 63.8277 57.2008 65.4523 55.3979C71.0707 49.1635 72.0073 43.3879 71.2724 38.772C70.5495 34.2316 68.1414 30.4663 66.0806 28.3218L65.6739 27.9145L65.5147 27.7541C63.9205 26.0611 63.9318 23.4094 65.578 21.7293Z" fill="#214FDA"/>
<path d="M80.5605 7.88614C82.3914 6.28854 85.1834 6.46234 86.7977 8.27438C96.0335 18.6418 108.781 46.2963 86.9972 74.5704C85.5171 76.4913 82.7441 76.861 80.8031 75.3962C78.8622 73.9314 78.4886 71.187 79.9687 69.266C98.3434 45.4171 87.6653 22.4747 80.1682 14.0591C78.5539 12.247 78.7295 9.48374 80.5605 7.88614Z" fill="#214FDA"/>
</svg>
