<svg width="169" height="120" viewBox="0 0 169 120" fill="none" xmlns="http://www.w3.org/2000/svg">
<rect width="169" height="120" rx="13" fill="#214FDA"/>
<rect x="14" y="12" width="13" height="20" rx="3" fill="white"/>
<rect x="14" y="88" width="13" height="20" rx="3" fill="white"/>
<rect x="14" y="48" width="13" height="20" rx="3" fill="white"/>
<rect x="142" y="12" width="13" height="20" rx="3" fill="white"/>
<rect x="142" y="88" width="13" height="20" rx="3" fill="white"/>
<rect x="142" y="48" width="13" height="20" rx="3" fill="white"/>
<path d="M110.5 57.4019C112.5 58.5566 112.5 61.4434 110.5 62.5981L70 85.9808C68 87.1355 65.5 85.6921 65.5 83.3827V36.6173C65.5 34.3079 68 32.8645 70 34.0192L110.5 57.4019Z" fill="white"/>
</svg>
